<svg height="512" viewBox="0 0 256 256" width="512" xmlns="http://www.w3.org/2000/svg"><g fill="#846f75"><path d="m170.946 62.07h42.1v104.993a2.5 2.5 0 0 0 5 0v-107.493a2.5 2.5 0 0 0 -2.5-2.5h-44.6a2.5 2.5 0 0 0 0 5z"/><path d="m40.454 169.563a2.5 2.5 0 0 0 2.5-2.5v-104.993h42.1a2.5 2.5 0 0 0 0-5h-44.6a2.5 2.5 0 0 0 -2.5 2.5v107.493a2.5 2.5 0 0 0 2.5 2.5z"/><path d="m74.53 75.922a2.5 2.5 0 0 0 0-5h-19.947a2.5 2.5 0 0 0 -2.5 2.5v93.641a2.5 2.5 0 0 0 2.5 2.5h126.917a2.5 2.5 0 0 0 0-5h-124.417v-88.641z"/><path d="m201.417 153.667a2.5 2.5 0 0 0 2.5-2.5v-77.745a2.5 2.5 0 0 0 -2.5-2.5h-19.946a2.5 2.5 0 0 0 0 5h17.446v75.245a2.5 2.5 0 0 0 2.5 2.5z"/><path d="m225.243 178.416h-194.486a10.257 10.257 0 0 0 0 20.514h194.486a10.257 10.257 0 0 0 0-20.514zm0 15.514h-194.486a5.257 5.257 0 1 1 0-10.514h194.486a5.257 5.257 0 0 1 0 10.514z"/></g><path d="m128 146.75a51.25 51.25 0 1 1 51.25-51.25 51.307 51.307 0 0 1 -51.25 51.25zm0-97.5a46.25 46.25 0 1 0 46.25 46.25 46.3 46.3 0 0 0 -46.25-46.25z" fill="#65c1d6"/><path d="m198.75 173.75a7.45 7.45 0 0 1 -5.3-2.2l-36.24-36.24a2.5 2.5 0 1 1 3.535-3.536l36.24 36.241a2.56 2.56 0 0 0 3.536 0 2.5 2.5 0 0 0 0-3.535l-36.241-36.241a2.5 2.5 0 1 1 3.536-3.535l36.24 36.24a7.5 7.5 0 0 1 -5.3 12.8z" fill="#65c1d6"/><path d="m118.527 84.155h-2.249a1.17 1.17 0 0 0 -1.079.717l-6.311 15.046-6.288-15.044a1.17 1.17 0 0 0 -1.08-.719h-2.235a1.169 1.169 0 0 0 -1.17 1.17v19.969a1.169 1.169 0 0 0 1.17 1.17h1.687a1.169 1.169 0 0 0 1.17-1.17v-8.768l-.043-2.771 5.064 11.994a1.169 1.169 0 0 0 1.078.715h1.3a1.17 1.17 0 0 0 1.078-.715l5.093-12.065-.045 11.61a1.169 1.169 0 0 0 1.17 1.17h1.687a1.17 1.17 0 0 0 1.171-1.17v-19.969a1.17 1.17 0 0 0 -1.168-1.17z" fill="#65c1d6"/><path d="m139.661 84.155h-1.851a1.169 1.169 0 0 0 -1.1.775l-5.295 14.759-5.3-14.759a1.169 1.169 0 0 0 -1.1-.775h-1.837a1.171 1.171 0 0 0 -1.1 1.578l7.434 19.969a1.171 1.171 0 0 0 1.1.762h1.618a1.172 1.172 0 0 0 1.1-.762l7.433-19.969a1.171 1.171 0 0 0 -1.1-1.578z" fill="#65c1d6"/><path d="m156.774 86.038a8.325 8.325 0 0 0 -5.691-1.883h-6.8a1.17 1.17 0 0 0 -1.171 1.17v19.969a1.17 1.17 0 0 0 1.171 1.17h1.687a1.169 1.169 0 0 0 1.17-1.17v-6.963h3.9a8.521 8.521 0 0 0 5.8-1.821 7.413 7.413 0 0 0 -.069-10.472zm-5.691 8.526h-3.945v-6.642h4.041a4.008 4.008 0 0 1 2.845.931 3.217 3.217 0 0 1 .922 2.459 3.028 3.028 0 0 1 -.905 2.387 4.317 4.317 0 0 1 -2.958.865z" fill="#65c1d6"/></svg>